/* XPM */
static char *a_en[] = {
/* columns rows colors chars-per-pixel */
"40 40 46 1 ",
"  c None",
". c #007BFF",
"X c #007CFF",
"o c #007DFF",
"O c #007EFF",
"+ c #007FFF",
"@ c #0080FF",
"# c #0C85FB",
"$ c #0D85FB",
"% c #0E86FA",
"& c #1087FA",
"* c #2F94EF",
"= c #3094EF",
"- c #3B99EB",
"; c #3D9AEB",
": c #3E9AEA",
"> c #3F9AEA",
", c #3898EC",
"< c #3A98EC",
"1 c #3B98EC",
"2 c #2991F1",
"3 c #2B92F1",
"4 c #2991F2",
"5 c #2C92F1",
"6 c #2E93F0",
"7 c #409BEA",
"8 c #5DA7E0",
"9 c #5CA6E1",
"0 c #5EA7E0",
"q c #C2D1BF",
"w c #F6E7AE",
"e c #F8E8AD",
"r c #FAE9AC",
"t c #91BDCF",
"y c #92BDCF",
"u c #8ABAD2",
"i c #8CBBD1",
"p c #9DC2CB",
"a c #A1C3CA",
"s c #BBCEC1",
"d c #B8CDC2",
"f c #BACEC2",
"g c #BDCFC1",
"h c #BECFC0",
"j c #BFD0C0",
"k c #C0D0C0",
/* pixels */
"                                        ",
"                                        ",
"              @@@@@@@@@@@@              ",
"              @@@@@@@@@@@@              ",
"          @@@@@@@@@@@@@@@@@@@@          ",
"          @@@@@@@@@@@@@@@@@@@@          ",
"        @@@@@@@@@@@@@@@@@@@@@@@@        ",
"        @@@@@@@@@@@@@@@@@@@@@@@@        ",
"      @@@@@@++@+@@@@@@@+@@+++++@@@      ",
"      @@@@++++++@@@@@@@+++++++@@@@      ",
"    @@@@+++++.+++@@@@@+++++++++@@@@@    ",
"    @@@@+%511115%+@@@@+%511115%+@@@@    ",
"    @@@++5usddsu5++++++5usddsu3+++@@    ",
"    @@+++-dreees-++++++1sreers1++@@@    ",
"  @@@@@++1dewwed1++++++1dwwwed1++@@@@@  ",
"  @@@@@++1dewwed1++@+++1dewwed1++@@@@@  ",
"  @@@@+++<srewrs-+++@++1sreees1+++@@@@  ",
"  @@@@@++3ussdsu5+++@++*usddsu5++@@@@@  ",
"  @@@@@@+%5-11-5%+++@@+%3-1115%+@@@@@@  ",
"  @@@@@@++.++++++@@+@@@++.++++++@@@@@@  ",
"  @@@@@@++++++++@@+++@++++++++++@@@@@@  ",
"  @@@@@@+++++++@++++++.++@@++.++@+@@@@  ",
"  @@++++.++++++++++++++++@++++++++@@@@  ",
"  @@+++$*775%.+#*171177*%+.$=71*%++@@@  ",
"  @@@+.3iqqu3..3ujjsshhu2..3uqqi3.++++  ",
"  @@+%39pjqp9,19pjhjshhp9119pjqp93$+@@  ",
"  @++*ta91,9pqjp91111119pjqp91,8ay*++@  ",
"  @++=tt5..3uqqi3..+++.3uqqu2..3yy=++@  ",
"  @@+&=*%+.%=71*#++++++%*775#+.%*=&+@@  ",
"  @@+++++@++++++++++@@++++++++++++++@@  ",
"  @@@+++@@++++++@@@@@@@@+.++@@++++@@@@  ",
"  @@@+++@@@+++@@@@@@@@@@++@@@@@@@@@@@@  ",
"  @@@@@@  @@@@@@@@    @@@@@@@@  @@@@@@  ",
"  @@@@@@  @@@@@@@@    @@@@@@@@  @@@@@@  ",
"  @@@@      @@@@        @@@@      @@@@  ",
"  @@@@      @@@@        @@@@      @@@@  ",
"  @@@@      @@@@        @@@@      @@@@  ",
"  @@@@      @@@@        @@@@      @@@@  ",
"                                        ",
"                                        "
};
