/* XPM */
static char *b_en[] = {
/* columns rows colors chars-per-pixel */
"40 40 57 1 ",
"  c None",
". c #1AAE46",
"X c #1DAF48",
"o c #1DB146",
"O c #1EB049",
"+ c #1FB049",
"@ c #1FB149",
"# c #20B249",
"$ c #20B04A",
"% c #20B04B",
"& c #21B14B",
"* c #21B34A",
"= c #22B34A",
"- c #22B24B",
"; c #21B449",
": c #22B14C",
"> c #21AA51",
", c #2CB554",
"< c #2FB755",
"1 c #239C60",
"2 c #269D63",
"3 c #29976C",
"4 c #46BE69",
"5 c #46BE6A",
"6 c #4ABF6C",
"7 c #4BC26B",
"8 c #4DC26D",
"9 c #58C478",
"0 c #59C478",
"q c #59C578",
"w c #59C579",
"e c #5BC679",
"r c #317495",
"t c #395EB1",
"y c #4462BA",
"u c #353CCC",
"i c #3C3ED2",
"p c #606CD0",
"a c #686FD7",
"s c #52A58D",
"d c #82D39A",
"f c #A0DDB2",
"g c #A5E2B3",
"h c #9597E5",
"j c #ABC5D5",
"k c #CCEDD6",
"l c #CDEED6",
"z c #CEEED7",
"x c #D0EFD9",
"c c #D1F1D8",
"v c #CFD1F2",
"b c #E0DFF9",
"n c #DBF2E2",
"m c #E5E1FD",
"M c #FCF7FF",
"N c #F7FCF9",
"B c white",
/* pixels */
"                                        ",
"                                        ",
"              ::::::::::::              ",
"              ::::::::::::              ",
"          ::::::::::::::::::::          ",
"          ::::::::::::::::::::          ",
"        ::::::::::::::::::::::::        ",
"        ::$++$$::::::::::$$+$$$:        ",
"      :::+++X+$:::::::::::XXX+@:::      ",
"      ::+,79q6,+@::::::@+,7996,+@:      ",
"    :::+.5fxxf5.X::::::+o5fxxf5X+:::    ",
"    :$:,5dnBBnd5,:::::$,5dnBBnd5,:@:    ",
"    :$X6fnNBBNnf6X:::$+6fnNBBNnf6++:    ",
"    :+X9kBBBBBBkqXX::+XqkBBBBBBk9X+:    ",
"  :::+XqkBBBBBBkqX+::+XqkBBBBBBk9++:::  ",
"  :::+XqkMbvvbMkqX+::+XqkMbvvbMkq++:::  ",
"  :::++ecmhaahmcqX+::++ecmhaahmceo+:::  ",
"  :::++8gjpuupjg8+:::$+8gjpuupjg8++:::  ",
"  :::@:<7syiiys7,@::::$<7syiiys7<:::::  ",
"  :::::+o1rttr1@$:::::-$o1rttr1o@:::::  ",
"  ::::::@>2332>+::::::::+>2332>@::::::  ",
"  ::::::--;;;;-::::::::::-;;@;--::::::  ",
"  ::::::::-;--::::::::::::--;-::::::::  ",
"  ::::::::::::::::::::::::::::::::::::  ",
"  ::::::::::::::::::::::::::::::::::::  ",
"  ::::::::::::::::::::::::::::::::::::  ",
"  ::::::::::::::::::::::::::::::::::::  ",
"  ::::::::::::::::::::::::::::::::::::  ",
"  ::::::::::::::::::::::::::::::::::::  ",
"  ::::::::::::::::::::::::::::::::::::  ",
"  ::::::::::::::::::::::::::::::::::::  ",
"  ::::::::::::::::::::::::::::::::::::  ",
"  ::::::  ::::::::    ::::::::  ::::::  ",
"  ::::::  ::::::::    ::::::::  ::::::  ",
"  ::::      ::::        ::::      ::::  ",
"  ::::      ::::        ::::      ::::  ",
"  ::::      ::::        ::::      ::::  ",
"  ::::      ::::        ::::      ::::  ",
"                                        ",
"                                        "
};
