/* XPM */
static char *dot[] = {
/* columns rows colors chars-per-pixel */
"40 40 33 1 ",
"  c None",
". c #FFF100",
"X c #FFF412",
"o c #FFF537",
"O c #FFF945",
"+ c #FFF648",
"@ c #FFF748",
"# c #FFFB5E",
"$ c #FFFB5F",
"% c #FFFB61",
"& c #FFFB62",
"* c #FFFA6E",
"= c #FFFA6F",
"- c #FFFB77",
"; c #FFFB79",
": c #FFFC7E",
"> c #FFFC7F",
", c #FFFC80",
"< c #FFFC81",
"1 c #FFFB9B",
"2 c #FFFDAF",
"3 c #FFFDB0",
"4 c #FFFCB2",
"5 c #FFFCB3",
"6 c #FFFDBF",
"7 c #FFFDC1",
"8 c #FFFDC5",
"9 c #FFFDC6",
"0 c #FFFDC7",
"q c #FFFEEE",
"w c #FFFEEF",
"e c #FFFEF0",
"r c ivory",
/* pixels */
"                                        ",
"                                        ",
"                                        ",
"                                        ",
"                                        ",
"                                        ",
"                                        ",
"                                        ",
"                                        ",
"                                        ",
"                                        ",
"                                        ",
"                                        ",
"                                        ",
"                                        ",
"                                        ",
"                  &OX.                  ",
"                  ;=@o                  ",
"                .o1751-#                ",
"                X+4ee8<#                ",
"                O=6qq8<#                ",
"                &>4882>#                ",
"                  ><<>                  ",
"                  ####                  ",
"                                        ",
"                                        ",
"                                        ",
"                                        ",
"                                        ",
"                                        ",
"                                        ",
"                                        ",
"                                        ",
"                                        ",
"                                        ",
"                                        ",
"                                        ",
"                                        ",
"                                        ",
"                                        "
};
