/* XPM */
static char *e_en[] = {
/* columns rows colors chars-per-pixel */
"40 40 88 1 ",
"  c #EC141C",
". c #ED161F",
"X c #ED171F",
"o c #EE181F",
"O c #F0171D",
"+ c #ED1820",
"@ c #ED1921",
"# c #EE1921",
"$ c #EF1A21",
"% c #EF1B21",
"& c #ED1922",
"* c #ED1A22",
"= c #ED1B23",
"- c #EE1B23",
"; c #EF1C22",
": c #EE1C23",
"> c #ED1C24",
", c #E31C2B",
"< c #F01A20",
"1 c #F11B20",
"2 c #F01B21",
"3 c #F01B22",
"4 c #CD203F",
"5 c #EE272E",
"6 c #EF272E",
"7 c #F1292F",
"8 c #CD2342",
"9 c #C1264D",
"0 c #CE3250",
"q c #F04148",
"w c #F24349",
"e c #F0454B",
"r c #F54649",
"t c #F1464C",
"y c #F3484C",
"u c #E64957",
"i c #F1545A",
"p c #F2555B",
"a c #F2565B",
"s c #F4575C",
"d c #C55177",
"f c #643BA5",
"g c #643CA6",
"h c #654AB3",
"j c #303ECC",
"k c #303ECD",
"l c #3142D0",
"z c #3143D1",
"x c #6767CF",
"c c #686FD7",
"v c #6873DB",
"b c #6877DE",
"n c #893483",
"m c #8C62AF",
"M c #F57F83",
"N c #F68084",
"B c #F88284",
"V c #F79DA1",
"C c #FBA1A2",
"Z c #FCA2A2",
"A c #9096E2",
"S c #919BE7",
"D c #CCACCF",
"F c #D8ABC5",
"G c #FBCBCD",
"H c #FBCCCE",
"J c #FBCFD1",
"K c #FCD0D1",
"L c #FFD2D2",
"P c #FCDADC",
"I c #FDDBDC",
"U c #FEDCDC",
"Y c #FFDDDC",
"T c #FFDFDD",
"R c #CFD1F2",
"E c #CFD6F7",
"W c #DCDDF5",
"Q c #DCDDF6",
"! c #D0DBFB",
"~ c #DCE3FB",
"^ c #DDEAFF",
"/ c #FEF7F7",
"( c #F4F4FC",
") c #F5FFFF",
"_ c #FFFAF8",
"` c #FFFBF8",
"' c white",
"] c None",
/* pixels */
"]]]]]]]]]]]]]]]]]]]]]]]]]]]]]]]]]]]]]]]]",
"]]]]]]]]]]]]]]]]]]]]]]]]]]]]]]]]]]]]]]]]",
"]]]]]]]]]]]]]]>>>>>>>>>>>>]]]]]]]]]]]]]]",
"]]]]]]]]]]]]]]>>>>>>>>>>>>]]]]]]]]]]]]]]",
"]]]]]]]]]]>>>>>>>>>>>>>>>>>>>>]]]]]]]]]]",
"]]]]]]]]]]>>>>>>>>>>>>>>>>>>>>]]]]]]]]]]",
"]]]]]]]]>>>*>>>>>>>>>>>>>>*=>>>>]]]]]]]]",
"]]]]]]]]>=*****>>>>>>>>>>=****=>]]]]]]]]",
"]]]]]]>>>*...**>>>>>>>>=>=*+.+*==>]]]]]]",
"]]]]]]>**5tiie5o*>>>>>>**5qiit5+==]]]]]]",
"]]]]>>** qVKJVq **>>>>>* qVJJVq *=>>]]]]",
"]]]]>>*5qMP''YBw5*>>>**5wMP''TNw6===]]]]",
"]]]]>*oeVP/''`TCt.*>>*+eVP/''`TCt+*=]]]]",
"]]]]**oiH''(QE!Fu**>**.iG''(WE!Fu<*=]]]]",
"]]>>>*.iG''QAvbm0<<>>*.iG''WAvbm0<1>>>]]",
"]]>>>*.iG''Rcjlf91<>=*oiG''Rcjlf9<>>>>]]",
"]]>>=&+pH''Rcjlf91;>>*+iH''Rcjlf911>>>]]",
"]]>>=&+eVP`~Sxhn81;>=*+eVP`~Sxhn81>>>>]]",
"]]>>>==5wMP)^Dd8,;>>>=*5wMP)^Dd8,<>>>>]]",
"]]>>>>=+ wVLLCrO*>>>>>=* wVJLCrO*>>>>>]]",
"]]>>>>>=+5epsy7<*>>>>>>**5tist7<=>>>>>]]",
"]]>>>>>>=*++.+*=>>>>>>>>=*+..+*>>>>>>>]]",
"]]>>>>>>>=*+**=>>>>>>>>>==****>>>>>>>>]]",
"]]>>>>>>>>==>>>>>>>>>>>>>>>==>>>>>>>>>]]",
"]]>>>>>>>>>>>>>>>>>>>>>>>>>>>>>>>>>>>>]]",
"]]>>>>>>>>>>>>>>>>>>>>>>>>>>>>>>>>>>>>]]",
"]]>>>>>>>>>>>>>>>>>>>>>>>>>>>>>>>>>>>>]]",
"]]>>>>>>>>>>>>>>>>>>>>>>>>>>>>>>>>>>>>]]",
"]]>>>>>>>>>>>>>>>>>>>>>>>>>>>>>>>>>>>>]]",
"]]>>>>>>>>>>>>>>>>>>>>>>>>>>>>>>>>>>>>]]",
"]]>>>>>>>>>>>>>>>>>>>>>>>>>>>>>>>>>>>>]]",
"]]>>>>>>>>>>>>>>>>>>>>>>>>>>>>>>>>>>>>]]",
"]]>>>>>>>>>>]]]]>>>>>>>>]]]]>>>>>>>>>>]]",
"]]>>>>>>>>>>]]]]>>>>>>>>]]]]>>>>>>>>>>]]",
"]]>>>>>>>>]]]]]]>>>>>>>>]]]]]]>>>>>>>>]]",
"]]>>>>>>>>]]]]]]>>>>>>>>]]]]]]>>>>>>>>]]",
"]]]]>>>>]]]]]]]]]]>>>>]]]]]]]]]]>>>>]]]]",
"]]]]>>>>]]]]]]]]]]>>>>]]]]]]]]]]>>>>]]]]",
"]]]]]]]]]]]]]]]]]]]]]]]]]]]]]]]]]]]]]]]]",
"]]]]]]]]]]]]]]]]]]]]]]]]]]]]]]]]]]]]]]]]"
};
