/* XPM */
static char *player_down[] = {
/* columns rows colors chars-per-pixel */
"40 40 2 1 ",
"  c None",
". c #FFF200",
/* pixels */
"                                        ",
"                                        ",
"                                        ",
"                                        ",
"          ..                ..          ",
"          ..                ..          ",
"        ....                ....        ",
"        ....                ....        ",
"      ........            ........      ",
"      ........            ........      ",
"    ............          ..........    ",
"    ............          ..........    ",
"    ............        ............    ",
"    ............        ............    ",
"  ................      ..............  ",
"  ................      ..............  ",
"  ................    ................  ",
"  ................    ................  ",
"  ..................  ................  ",
"  ..................  ................  ",
"  ....................................  ",
"  ....................................  ",
"  ....................................  ",
"  ....................................  ",
"  ....................................  ",
"  ....................................  ",
"    ................................    ",
"    ................................    ",
"    ................................    ",
"    ................................    ",
"      ............................      ",
"      ............................      ",
"        ........................        ",
"        ........................        ",
"          ....................          ",
"          ....................          ",
"              ............              ",
"              ............              ",
"                                        ",
"                                        "
};
