/* XPM */
static char *player_right[] = {
/* columns rows colors chars-per-pixel */
"40 40 2 1 ",
"  c #FFF200",
". c None",
/* pixels */
"........................................",
"........................................",
"..............            ..............",
"..............            ..............",
"..........                    ..........",
"..........                    ..........",
"........                        ........",
"........                        ........",
"......                            ......",
"......                            ......",
"....                                ....",
"....                                ....",
"....                            ........",
"....                            ........",
"..                            ..........",
"..                            ..........",
"..                        ..............",
"..                        ..............",
"..                    ..................",
"..                    ..................",
"..                  ....................",
"..                  ....................",
"..                      ................",
"..                      ................",
"..                          ............",
"..                          ............",
"....                            ........",
"....                            ........",
"....                                ....",
"....                                ....",
"......                            ......",
"......                            ......",
"........                        ........",
"........                        ........",
"..........                    ..........",
"..........                    ..........",
"..............            ..............",
"..............            ..............",
"........................................",
"........................................"
};
