/* XPM */
static char *y_en[] = {
/* columns rows colors chars-per-pixel */
"40 40 54 1 ",
"  c #FF7A1F",
". c #FF7E20",
"X c #FF7C22",
"o c #FF7D23",
"O c #FF7D24",
"+ c #FF7E24",
"@ c #FF7F24",
"# c #FF7E25",
"$ c #FF7E26",
"% c #FF7F26",
"& c #FF7F27",
"* c #F47A2E",
"= c #DC7341",
"- c #DC7444",
"; c #CF7150",
": c #FF8023",
"> c #FF8024",
", c #FF8025",
"< c #FF8531",
"1 c #FF8832",
"2 c #FF944B",
"3 c #FF964E",
"4 c #FF994C",
"5 c #FF994F",
"6 c #FF9E5C",
"7 c #FF9F5C",
"8 c #FF9F5D",
"9 c #FFA15D",
"0 c #CF8978",
"q c #6854A9",
"w c #685AB4",
"e c #303DCD",
"r c #3041D4",
"t c #686ACF",
"y c #686FD7",
"u c #905F85",
"i c #FFB785",
"p c #FFC8A2",
"a c #FFCCA3",
"s c #9098E6",
"d c #CFBCCF",
"f c #FFE1CD",
"g c #FFE3CE",
"h c #FFE2CF",
"j c #FFE4D1",
"k c #FFE6D0",
"l c #FFEADC",
"z c #CFD1F2",
"x c #DCE0FA",
"c c #DCE3FF",
"v c #FFFAF7",
"b c #F4F9FF",
"n c white",
"m c None",
/* pixels */
"mmmmmmmmmmmmmmmmmmmmmmmmmmmmmmmmmmmmmmmm",
"mmmmmmmmmmmmmmmmmmmmmmmmmmmmmmmmmmmmmmmm",
"mmmmmmmmmmmmmm&&&&&&&&&&&&mmmmmmmmmmmmmm",
"mmmmmmmmmmmmmm&&&&&&&&&&&&mmmmmmmmmmmmmm",
"mmmmmmmmmm&&&&&&&&&&&&&&&&&&&&mmmmmmmmmm",
"mmmmmmmmmm&&&&&&&&&&&&&&&&&&&&mmmmmmmmmm",
"mmmmmmmm&&&&&&&&&&&&&&&&&&&&&&&&mmmmmmmm",
"mmmmmmmm&&o&oo&&&&&&&&&&&&&oo&&&mmmmmmmm",
"mmmmmm&&&&oXoo&&&&&&&&&&&&oXX&&&&&mmmmmm",
"mmmmmm&&o<3673<o&&&&&&&&X<3973<Xo&mmmmmm",
"mmmm&&&o 2pjjp2 o&&&&&&o 2pffp2 o&&&mmmm",
"mmmm&&&<2ilnnli2<&o&&&&<2ilnnli2<&&&mmmm",
"mmmm&&o3plvnnvlp2oo&&&X3plvnnvlp3o&&mmmm",
"mmmm&oX6fnnnnnnj6oo&&oX6fnnnnnnf6Xo&mmmm",
"mm&&&&X6fnnnnnnf6X&&&Xo7fnnnnnnf6X&&&&mm",
"mm&&&oX6fbxzzxbf6Xo&&&X9fbxzzxbf6Xo&&&mm",
"mm&&&oo9kcsyysck9Xo&&oo9gcsyysxk9oo&&&mm",
"mm&&&oo5adteetda5o&&&&o5adtretda5o&&&&mm",
"mm&&&&&140wrrw04<&&&&&&150wrrw041&&&&&mm",
"mm&&&&&&:=uqqu= o&&&&&>o =uqqu=:o&&&&&mm",
"mm&&&&&&o*-;;=*&>&&&&&&&&*-;;=*:&&&&&&mm",
"mm&&&&&&>>>>::&&&&&&&&&&&&>:::&>&&&&&&mm",
"mm&&&&&&&&>>::&&&&&&&&&&&&>>>>&&&&&&&&mm",
"mm&&&&&&&&&&&&&&&&&&&&&&&&&&&&&&&&&&&&mm",
"mm&&&&&&&&&&&&&&&&&&&&&&&&&&&&&&&&&&&&mm",
"mm&&&&&&&&&&&&&&&&&&&&&&&&&&&&&&&&&&&&mm",
"mm&&&&&&&&&&&&&&&&&&&&&&&&&&&&&&&&&&&&mm",
"mm&&&&&&&&&&&&&&&&&&&&&&&&&&&&&&&&&&&&mm",
"mm&&&&&&&&&&&&&&&&&&&&&&&&&&&&&&&&&&&&mm",
"mm&&&&&&&&&&&&&&&&&&&&&&&&&&&&&&&&&&&&mm",
"mm&&&&&&&&&&&&&&&&&&&&&&&&&&&&&&&&&&&&mm",
"mm&&&&&&&&&&&&&&&&&&&&&&&&&&&&&&&&&&&&mm",
"mm&&&&&&mm&&&&&&&&mmmm&&&&&&&&mm&&&&&&mm",
"mm&&&&&&mm&&&&&&&&mmmm&&&&&&&&mm&&&&&&mm",
"mm&&&&mmmmmm&&&&mmmmmmmm&&&&mmmmmm&&&&mm",
"mm&&&&mmmmmm&&&&mmmmmmmm&&&&mmmmmm&&&&mm",
"mm&&&&mmmmmm&&&&mmmmmmmm&&&&mmmmmm&&&&mm",
"mm&&&&mmmmmm&&&&mmmmmmmm&&&&mmmmmm&&&&mm",
"mmmmmmmmmmmmmmmmmmmmmmmmmmmmmmmmmmmmmmmm",
"mmmmmmmmmmmmmmmmmmmmmmmmmmmmmmmmmmmmmmmm"
};
